<svg xmlns="http://www.w3.org/2000/svg" viewBox="0 0 146.78 155.63"><defs><style>.cls-1{fill:#fff;}.cls-2{fill:#ccc;}.cls-3{fill:gray;}.cls-4{fill:#32a8cc;}.cls-5{fill:#999;}.cls-6{fill:#ff3131;}</style></defs><title>Asset 2</title><g id="Layer_2" data-name="Layer 2"><g id="Layer_1-2" data-name="Layer 1"><polygon class="cls-1" points="0 4.17 73.67 117.55 146.78 153.42 71.75 39.5 0 4.17"/><polygon class="cls-1" points="143.35 1.18 71.75 39.5 2.32 155.63 75.71 116.47 143.35 1.18"/><polygon class="cls-2" points="71.75 38.5 36.12 58.76 48.31 77.53 71.75 38.5"/><polygon class="cls-3" points="71.75 38.5 48.31 77.53 73.67 116.55 97.79 77.97 71.75 38.5"/><line class="cls-4" x1="48.31" y1="77.97" x2="73.39" y2="116.13"/><polygon class="cls-2" points="73.67 116.55 33.49 102.36 48.24 77.28 73.67 116.55"/><polygon class="cls-2" points="73.67 116.55 113.74 102.27 97.79 77.97 73.67 116.55"/><polygon class="cls-2" points="71.75 38.5 109.23 58.8 97.94 78.19 71.75 38.5"/><polygon class="cls-5" points="71.75 38.5 73.05 79.31 73.67 116.55 97.79 77.97 71.75 38.5"/><path class="cls-6" d="M113.74,102.27,73.67,116.55Z"/><polyline class="cls-1" points="146.78 152.42 73.67 116.55 113.74 102.27"/><polyline class="cls-1" points="2.32 154.63 73.67 116.55 33.62 102.34"/><polyline class="cls-1" points="143.73 0 71.75 38.5 109.23 58.8"/></g></g></svg>