<svg xmlns="http://www.w3.org/2000/svg" viewBox="0 0 146.78 154.63"><defs><style>.cls-1{fill:#333;}.cls-2{fill:#999;}.cls-3{fill:#32a8cc;}.cls-4{fill:#666;}.cls-5{fill:#ff3131;}</style></defs><title>Asset 1</title><g id="Layer_2" data-name="Layer 2"><g id="Layer_1-2" data-name="Layer 1"><polygon points="0 3.17 73.67 116.55 146.78 152.42 71.75 38.5 0 3.17"/><polygon points="143.35 0.18 71.75 38.5 2.32 154.63 75.71 115.47 143.35 0.18"/><polygon class="cls-1" points="71.75 38.5 36.12 58.76 48.31 77.53 71.75 38.5"/><polygon class="cls-2" points="71.75 38.5 48.31 77.53 73.67 116.55 97.79 77.97 71.75 38.5"/><line class="cls-3" x1="48.31" y1="77.97" x2="73.39" y2="116.13"/><polygon class="cls-1" points="73.67 116.55 33.49 102.36 48.24 77.28 73.67 116.55"/><polygon class="cls-1" points="73.67 116.55 113.74 102.27 97.79 77.97 73.67 116.55"/><polygon class="cls-1" points="71.75 38.5 109.23 58.8 97.94 78.19 71.75 38.5"/><polygon class="cls-4" points="71.75 38.5 73.05 79.31 73.67 116.55 97.79 77.97 71.75 38.5"/><path class="cls-5" d="M113.74,102.27,73.67,116.55Z"/><polyline points="146.78 152.42 73.67 116.55 113.74 102.27"/><polyline points="2.32 154.63 73.67 116.55 33.62 102.34"/><polyline points="143.73 0 71.75 38.5 109.23 58.8"/><polyline points="0 3.17 71.75 38.5 36.12 58.76"/></g></g></svg>